<svg xmlns="http://www.w3.org/2000/svg" width="900" height="520" viewBox="0 0 900 520">
<rect width="100%" height="100%" fill="white"/>
<text x="450" y="34" text-anchor="middle" font-family="Arial" font-size="22">Mixtral BF16 Transfer-Bound HRM Heatmap</text>
<text x="450" y="58" text-anchor="middle" font-family="Arial" font-size="13">Cell value = fraction of tested resident-fraction and decode-token settings that are expert-transfer-bound at measured 41.37 GB/s</text>
<text x="40" y="254" transform="rotate(-90 40 254)" text-anchor="middle" font-family="Arial" font-size="13">GPU memory budget (GB)</text>
<text x="420" y="391" text-anchor="middle" font-family="Arial" font-size="13">KV reservation (GB)</text>
<text x="195.00" y="74" text-anchor="middle" font-family="Arial" font-size="13">4</text>
<text x="345.00" y="74" text-anchor="middle" font-family="Arial" font-size="13">8</text>
<text x="495.00" y="74" text-anchor="middle" font-family="Arial" font-size="13">16</text>
<text x="645.00" y="74" text-anchor="middle" font-family="Arial" font-size="13">32</text>
<text x="100" y="135.00" text-anchor="end" font-family="Arial" font-size="13">24</text>
<text x="100" y="217.00" text-anchor="end" font-family="Arial" font-size="13">48</text>
<text x="100" y="299.00" text-anchor="end" font-family="Arial" font-size="13">96</text>
<rect x="120" y="90" width="150" height="82" fill="rgb(255,100,100)" stroke="#666"/>
<text x="195.00" y="127.00" text-anchor="middle" font-family="Arial" font-size="18">1.00</text>
<text x="195.00" y="149.00" text-anchor="middle" font-family="Arial" font-size="11">transfer-bound ratio</text>
<rect x="270" y="90" width="150" height="82" fill="rgb(255,100,100)" stroke="#666"/>
<text x="345.00" y="127.00" text-anchor="middle" font-family="Arial" font-size="18">1.00</text>
<text x="345.00" y="149.00" text-anchor="middle" font-family="Arial" font-size="11">transfer-bound ratio</text>
<rect x="420" y="90" width="150" height="82" fill="rgb(255,100,100)" stroke="#666"/>
<text x="495.00" y="127.00" text-anchor="middle" font-family="Arial" font-size="18">1.00</text>
<text x="495.00" y="149.00" text-anchor="middle" font-family="Arial" font-size="11">transfer-bound ratio</text>
<rect x="570" y="90" width="150" height="82" fill="rgb(255,100,100)" stroke="#666"/>
<text x="645.00" y="127.00" text-anchor="middle" font-family="Arial" font-size="18">1.00</text>
<text x="645.00" y="149.00" text-anchor="middle" font-family="Arial" font-size="11">transfer-bound ratio</text>
<rect x="120" y="172" width="150" height="82" fill="rgb(255,100,100)" stroke="#666"/>
<text x="195.00" y="209.00" text-anchor="middle" font-family="Arial" font-size="18">1.00</text>
<text x="195.00" y="231.00" text-anchor="middle" font-family="Arial" font-size="11">transfer-bound ratio</text>
<rect x="270" y="172" width="150" height="82" fill="rgb(255,100,100)" stroke="#666"/>
<text x="345.00" y="209.00" text-anchor="middle" font-family="Arial" font-size="18">1.00</text>
<text x="345.00" y="231.00" text-anchor="middle" font-family="Arial" font-size="11">transfer-bound ratio</text>
<rect x="420" y="172" width="150" height="82" fill="rgb(255,100,100)" stroke="#666"/>
<text x="495.00" y="209.00" text-anchor="middle" font-family="Arial" font-size="18">1.00</text>
<text x="495.00" y="231.00" text-anchor="middle" font-family="Arial" font-size="11">transfer-bound ratio</text>
<rect x="570" y="172" width="150" height="82" fill="rgb(255,100,100)" stroke="#666"/>
<text x="645.00" y="209.00" text-anchor="middle" font-family="Arial" font-size="18">1.00</text>
<text x="645.00" y="231.00" text-anchor="middle" font-family="Arial" font-size="11">transfer-bound ratio</text>
<rect x="120" y="254" width="150" height="82" fill="rgb(255,255,255)" stroke="#666"/>
<text x="195.00" y="291.00" text-anchor="middle" font-family="Arial" font-size="18">0.00</text>
<text x="195.00" y="313.00" text-anchor="middle" font-family="Arial" font-size="11">transfer-bound ratio</text>
<rect x="270" y="254" width="150" height="82" fill="rgb(255,255,255)" stroke="#666"/>
<text x="345.00" y="291.00" text-anchor="middle" font-family="Arial" font-size="18">0.00</text>
<text x="345.00" y="313.00" text-anchor="middle" font-family="Arial" font-size="11">transfer-bound ratio</text>
<rect x="420" y="254" width="150" height="82" fill="rgb(255,100,100)" stroke="#666"/>
<text x="495.00" y="291.00" text-anchor="middle" font-family="Arial" font-size="18">1.00</text>
<text x="495.00" y="313.00" text-anchor="middle" font-family="Arial" font-size="11">transfer-bound ratio</text>
<rect x="570" y="254" width="150" height="82" fill="rgb(255,100,100)" stroke="#666"/>
<text x="645.00" y="291.00" text-anchor="middle" font-family="Arial" font-size="18">1.00</text>
<text x="645.00" y="313.00" text-anchor="middle" font-family="Arial" font-size="11">transfer-bound ratio</text>
<rect x="730" y="120" width="24" height="18" fill="rgb(255,255,255)" stroke="#666"/>
<text x="764" y="133" font-family="Arial" font-size="12">0.00</text>
<rect x="730" y="146" width="24" height="18" fill="rgb(255,216,216)" stroke="#666"/>
<text x="764" y="159" font-family="Arial" font-size="12">0.25</text>
<rect x="730" y="172" width="24" height="18" fill="rgb(255,177,177)" stroke="#666"/>
<text x="764" y="185" font-family="Arial" font-size="12">0.50</text>
<rect x="730" y="198" width="24" height="18" fill="rgb(255,138,138)" stroke="#666"/>
<text x="764" y="211" font-family="Arial" font-size="12">0.75</text>
<rect x="730" y="224" width="24" height="18" fill="rgb(255,100,100)" stroke="#666"/>
<text x="764" y="237" font-family="Arial" font-size="12">1.00</text>
</svg>
