<svg xmlns="http://www.w3.org/2000/svg" width="900" height="420" viewBox="0 0 900 420">
<rect width="100%" height="100%" fill="white"/>
<text x="450" y="30" text-anchor="middle" font-family="Arial" font-size="20">Mixtral Prefill Expert Locality</text>
<text x="450" y="52" text-anchor="middle" font-family="Arial" font-size="12">29,123 input tokens, 931,936 router events, 1,863,872 expert refs</text>
<text x="250.0" y="91" text-anchor="middle" font-family="Arial" font-size="15">Top-2 expert share across layers</text>
<line x1="80" y1="105" x2="80" y2="295" stroke="#333"/>
<line x1="80" y1="295" x2="420" y2="295" stroke="#333"/>
<text x="80.00" y="313" text-anchor="middle" font-family="Arial" font-size="11">0</text>
<text x="244.52" y="313" text-anchor="middle" font-family="Arial" font-size="11">15</text>
<text x="420.00" y="313" text-anchor="middle" font-family="Arial" font-size="11">31</text>
<line x1="75" y1="247.50" x2="420" y2="247.50" stroke="#eee"/>
<text x="70" y="251.50" text-anchor="end" font-family="Arial" font-size="11">0.25</text>
<line x1="75" y1="200.00" x2="420" y2="200.00" stroke="#eee"/>
<text x="70" y="204.00" text-anchor="end" font-family="Arial" font-size="11">0.50</text>
<line x1="75" y1="152.50" x2="420" y2="152.50" stroke="#eee"/>
<text x="70" y="156.50" text-anchor="end" font-family="Arial" font-size="11">0.75</text>
<line x1="75" y1="105.00" x2="420" y2="105.00" stroke="#eee"/>
<text x="70" y="109.00" text-anchor="end" font-family="Arial" font-size="11">1.00</text>
<polyline fill="none" stroke="#4C78A8" stroke-width="2.5" points="80.00,237.41 90.97,238.89 101.94,240.95 112.90,239.49 123.87,238.29 134.84,239.56 145.81,227.20 156.77,235.82 167.74,234.34 178.71,234.46 189.68,233.94 200.65,231.66 211.61,229.33 222.58,236.00 233.55,234.83 244.52,236.69 255.48,230.98 266.45,233.97 277.42,239.61 288.39,242.40 299.35,244.15 310.32,238.77 321.29,234.24 332.26,240.39 343.23,239.92 354.19,233.51 365.16,234.62 376.13,235.43 387.10,234.82 398.06,238.05 409.03,238.25 420.00,236.25"/>
<text x="250.0" y="337" text-anchor="middle" font-family="Arial" font-size="11">Layer index</text>
<text x="32" y="200.0" transform="rotate(-90 32 200.0)" text-anchor="middle" font-family="Arial" font-size="11">Top-2 share</text>
<rect x="80" y="330" width="740" height="58" fill="#f8f8f8" stroke="#dddddd"/>
<text x="100" y="352" font-family="Arial" font-size="12">Reuse distance p50/p90/p99: 5 / 27 / 7097 expert refs</text>
<text x="100" y="374" font-family="Arial" font-size="12">Train/eval hotness overlap: top-2 = 0.938, top-4 = 0.938</text>
<text x="660.0" y="91" text-anchor="middle" font-family="Arial" font-size="15">Short-window working set</text>
<line x1="500" y1="105" x2="500" y2="295" stroke="#333"/>
<line x1="500" y1="295" x2="820" y2="295" stroke="#333"/>
<text x="500.00" y="313" text-anchor="middle" font-family="Arial" font-size="11">4</text>
<text x="660.00" y="313" text-anchor="middle" font-family="Arial" font-size="11">8</text>
<text x="820.00" y="313" text-anchor="middle" font-family="Arial" font-size="11">16</text>
<polyline fill="none" stroke="#54A24B" stroke-width="2.5" points="500.00,176.25 660.00,128.75 820.00,105.00"/>
<text x="518" y="123" font-family="Arial" font-size="11" fill="#54A24B">p50 unique experts</text>
</svg>
