<svg xmlns="http://www.w3.org/2000/svg" width="980" height="520" viewBox="0 0 980 520">
<rect width="100%" height="100%" fill="white"/>
<text x="490.0" y="32" text-anchor="middle" font-family="Arial" font-size="20">WREC Ablation Average Gain vs LRU</text>
<line x1="90" y1="60" x2="90" y2="390" stroke="#333"/>
<line x1="90" y1="390" x2="940" y2="390" stroke="#333"/>
<text x="22" y="225.0" transform="rotate(-90 22 225.0)" text-anchor="middle" font-family="Arial" font-size="13">avg gain vs LRU (%)</text>
<line x1="85" y1="390.00" x2="940" y2="390.00" stroke="#eee"/>
<text x="80" y="394.00" text-anchor="end" font-family="Arial" font-size="11">0.00</text>
<line x1="85" y1="307.50" x2="940" y2="307.50" stroke="#eee"/>
<text x="80" y="311.50" text-anchor="end" font-family="Arial" font-size="11">19.85</text>
<line x1="85" y1="225.00" x2="940" y2="225.00" stroke="#eee"/>
<text x="80" y="229.00" text-anchor="end" font-family="Arial" font-size="11">39.70</text>
<line x1="85" y1="142.50" x2="940" y2="142.50" stroke="#eee"/>
<text x="80" y="146.50" text-anchor="end" font-family="Arial" font-size="11">59.55</text>
<line x1="85" y1="60.00" x2="940" y2="60.00" stroke="#eee"/>
<text x="80" y="64.00" text-anchor="end" font-family="Arial" font-size="11">79.40</text>
<rect x="107.00" y="66.65" width="72.25" height="323.35" fill="#4C78A8"/>
<text x="143.12" y="60.65" text-anchor="middle" font-family="Arial" font-size="11">77.80</text>
<text x="143.12" y="408" transform="rotate(35 143.12 408)" text-anchor="start" font-family="Arial" font-size="11">full_wrec_h2</text>
<rect x="213.25" y="209.16" width="72.25" height="180.84" fill="#4C78A8"/>
<text x="249.38" y="203.16" text-anchor="middle" font-family="Arial" font-size="11">43.51</text>
<text x="249.38" y="408" transform="rotate(35 249.38 408)" text-anchor="start" font-family="Arial" font-size="11">wrec_h_recent_only</text>
<rect x="319.50" y="66.56" width="72.25" height="323.44" fill="#4C78A8"/>
<text x="355.62" y="60.56" text-anchor="middle" font-family="Arial" font-size="11">77.82</text>
<text x="355.62" y="408" transform="rotate(35 355.62 408)" text-anchor="start" font-family="Arial" font-size="11">no_workload_term</text>
<rect x="425.75" y="66.65" width="72.25" height="323.35" fill="#4C78A8"/>
<text x="461.88" y="60.65" text-anchor="middle" font-family="Arial" font-size="11">77.80</text>
<text x="461.88" y="408" transform="rotate(35 461.88 408)" text-anchor="start" font-family="Arial" font-size="11">no_transfer_term</text>
<rect x="532.00" y="60.00" width="72.25" height="330.00" fill="#4C78A8"/>
<text x="568.12" y="54.00" text-anchor="middle" font-family="Arial" font-size="11">79.40</text>
<text x="568.12" y="408" transform="rotate(35 568.12 408)" text-anchor="start" font-family="Arial" font-size="11">no_recent_signal</text>
<rect x="638.25" y="67.04" width="72.25" height="322.96" fill="#4C78A8"/>
<text x="674.38" y="61.04" text-anchor="middle" font-family="Arial" font-size="11">77.70</text>
<text x="674.38" y="408" transform="rotate(35 674.38 408)" text-anchor="start" font-family="Arial" font-size="11">no_request_signal</text>
<rect x="744.50" y="105.12" width="72.25" height="284.88" fill="#4C78A8"/>
<text x="780.62" y="99.12" text-anchor="middle" font-family="Arial" font-size="11">68.54</text>
<text x="780.62" y="408" transform="rotate(35 780.62 408)" text-anchor="start" font-family="Arial" font-size="11">no_cross_layer_signal</text>
<rect x="850.75" y="393.85" width="72.25" height="-3.85" fill="#4C78A8"/>
<text x="886.88" y="387.85" text-anchor="middle" font-family="Arial" font-size="11">-0.93</text>
<text x="886.88" y="408" transform="rotate(35 886.88 408)" text-anchor="start" font-family="Arial" font-size="11">train_window_only</text>
</svg>
