<svg xmlns="http://www.w3.org/2000/svg" width="900" height="520" viewBox="0 0 900 520">
<rect width="100%" height="100%" fill="white"/>
<text x="450.0" y="30" text-anchor="middle" font-family="Arial" font-size="20">Oracle Gap Capture vs Total Expert-Cache Budget</text>
<line x1="90" y1="60" x2="90" y2="440" stroke="#333"/>
<line x1="90" y1="440" x2="680" y2="440" stroke="#333"/>
<text x="20" y="250.0" transform="rotate(-90 20 250.0)" text-anchor="middle" font-family="Arial" font-size="13">oracle gap capture ratio</text>
<text x="385.0" y="495" text-anchor="middle" font-family="Arial" font-size="13">total expert-cache slots</text>
<line x1="90.00" y1="440" x2="90.00" y2="446" stroke="#333"/>
<text x="90.00" y="464" text-anchor="middle" font-family="Arial" font-size="12">32</text>
<line x1="237.50" y1="440" x2="237.50" y2="446" stroke="#333"/>
<text x="237.50" y="464" text-anchor="middle" font-family="Arial" font-size="12">64</text>
<line x1="385.00" y1="440" x2="385.00" y2="446" stroke="#333"/>
<text x="385.00" y="464" text-anchor="middle" font-family="Arial" font-size="12">96</text>
<line x1="532.50" y1="440" x2="532.50" y2="446" stroke="#333"/>
<text x="532.50" y="464" text-anchor="middle" font-family="Arial" font-size="12">128</text>
<line x1="680.00" y1="440" x2="680.00" y2="446" stroke="#333"/>
<text x="680.00" y="464" text-anchor="middle" font-family="Arial" font-size="12">192</text>
<line x1="85" y1="440.00" x2="680" y2="440.00" stroke="#eee"/>
<text x="80" y="444.00" text-anchor="end" font-family="Arial" font-size="11">0.00</text>
<line x1="85" y1="345.00" x2="680" y2="345.00" stroke="#eee"/>
<text x="80" y="349.00" text-anchor="end" font-family="Arial" font-size="11">0.25</text>
<line x1="85" y1="250.00" x2="680" y2="250.00" stroke="#eee"/>
<text x="80" y="254.00" text-anchor="end" font-family="Arial" font-size="11">0.50</text>
<line x1="85" y1="155.00" x2="680" y2="155.00" stroke="#eee"/>
<text x="80" y="159.00" text-anchor="end" font-family="Arial" font-size="11">0.75</text>
<line x1="85" y1="60.00" x2="680" y2="60.00" stroke="#eee"/>
<text x="80" y="64.00" text-anchor="end" font-family="Arial" font-size="11">1.00</text>
<polyline fill="none" stroke="#F58518" stroke-width="2.5" points="90.00,401.40 237.50,436.86 385.00,440.00 532.50,440.00 680.00,440.00"/>
<circle cx="90.00" cy="401.40" r="3.5" fill="#F58518"/>
<circle cx="237.50" cy="436.86" r="3.5" fill="#F58518"/>
<circle cx="385.00" cy="440.00" r="3.5" fill="#F58518"/>
<circle cx="532.50" cy="440.00" r="3.5" fill="#F58518"/>
<circle cx="680.00" cy="440.00" r="3.5" fill="#F58518"/>
<polyline fill="none" stroke="#B279A2" stroke-width="2.5" points="90.00,165.90 237.50,136.69 385.00,112.76 532.50,103.38 680.00,117.63"/>
<circle cx="90.00" cy="165.90" r="3.5" fill="#B279A2"/>
<circle cx="237.50" cy="136.69" r="3.5" fill="#B279A2"/>
<circle cx="385.00" cy="112.76" r="3.5" fill="#B279A2"/>
<circle cx="532.50" cy="103.38" r="3.5" fill="#B279A2"/>
<circle cx="680.00" cy="117.63" r="3.5" fill="#B279A2"/>
<polyline fill="none" stroke="#2F855A" stroke-width="2.5" points="90.00,188.13 237.50,155.39 385.00,129.71 532.50,116.41 680.00,121.13"/>
<circle cx="90.00" cy="188.13" r="3.5" fill="#2F855A"/>
<circle cx="237.50" cy="155.39" r="3.5" fill="#2F855A"/>
<circle cx="385.00" cy="129.71" r="3.5" fill="#2F855A"/>
<circle cx="532.50" cy="116.41" r="3.5" fill="#2F855A"/>
<circle cx="680.00" cy="121.13" r="3.5" fill="#2F855A"/>
<polyline fill="none" stroke="#72B7B2" stroke-width="2.5" points="90.00,60.00 237.50,60.00 385.00,60.00 532.50,60.00 680.00,60.00"/>
<circle cx="90.00" cy="60.00" r="3.5" fill="#72B7B2"/>
<circle cx="237.50" cy="60.00" r="3.5" fill="#72B7B2"/>
<circle cx="385.00" cy="60.00" r="3.5" fill="#72B7B2"/>
<circle cx="532.50" cy="60.00" r="3.5" fill="#72B7B2"/>
<circle cx="680.00" cy="60.00" r="3.5" fill="#72B7B2"/>
<line x1="705" y1="60" x2="730" y2="60" stroke="#F58518" stroke-width="3"/>
<text x="737" y="64" font-family="Arial" font-size="12">static_hot</text>
<line x1="705" y1="84" x2="730" y2="84" stroke="#B279A2" stroke-width="3"/>
<text x="737" y="88" font-family="Arial" font-size="12">wrec_h2</text>
<line x1="705" y1="108" x2="730" y2="108" stroke="#2F855A" stroke-width="3"/>
<text x="737" y="112" font-family="Arial" font-size="12">wrec_c</text>
<line x1="705" y1="132" x2="730" y2="132" stroke="#72B7B2" stroke-width="3"/>
<text x="737" y="136" font-family="Arial" font-size="12">belady_oracle</text>
</svg>
