<svg xmlns="http://www.w3.org/2000/svg" width="860" height="500" viewBox="0 0 860 500">
<rect width="100%" height="100%" fill="white"/>
<text x="430.0" y="32" text-anchor="middle" font-family="Arial" font-size="20">WREC-H2 Gain vs Online History</text>
<line x1="90" y1="60" x2="90" y2="430" stroke="#333"/>
<line x1="90" y1="430" x2="810" y2="430" stroke="#333"/>
<text x="22" y="245.0" transform="rotate(-90 22 245.0)" text-anchor="middle" font-family="Arial" font-size="13">avg gain vs LRU (%)</text>
<text x="450.0" y="476" text-anchor="middle" font-family="Arial" font-size="13">history size</text>
<line x1="85" y1="430.00" x2="810" y2="430.00" stroke="#eee"/>
<text x="80" y="434.00" text-anchor="end" font-family="Arial" font-size="11">0.00</text>
<line x1="85" y1="337.50" x2="810" y2="337.50" stroke="#eee"/>
<text x="80" y="341.50" text-anchor="end" font-family="Arial" font-size="11">19.45</text>
<line x1="85" y1="245.00" x2="810" y2="245.00" stroke="#eee"/>
<text x="80" y="249.00" text-anchor="end" font-family="Arial" font-size="11">38.90</text>
<line x1="85" y1="152.50" x2="810" y2="152.50" stroke="#eee"/>
<text x="80" y="156.50" text-anchor="end" font-family="Arial" font-size="11">58.35</text>
<line x1="85" y1="60.00" x2="810" y2="60.00" stroke="#eee"/>
<text x="80" y="64.00" text-anchor="end" font-family="Arial" font-size="11">77.80</text>
<line x1="90.00" y1="430" x2="90.00" y2="436" stroke="#333"/>
<text x="90.00" y="452" text-anchor="middle" font-family="Arial" font-size="11">1</text>
<line x1="159.68" y1="430" x2="159.68" y2="436" stroke="#333"/>
<text x="159.68" y="452" text-anchor="middle" font-family="Arial" font-size="11">4</text>
<line x1="252.58" y1="430" x2="252.58" y2="436" stroke="#333"/>
<text x="252.58" y="452" text-anchor="middle" font-family="Arial" font-size="11">8</text>
<line x1="438.39" y1="430" x2="438.39" y2="436" stroke="#333"/>
<text x="438.39" y="452" text-anchor="middle" font-family="Arial" font-size="11">16</text>
<line x1="810.00" y1="430" x2="810.00" y2="436" stroke="#333"/>
<text x="810.00" y="452" text-anchor="middle" font-family="Arial" font-size="11">32</text>
<polyline fill="none" stroke="#B279A2" stroke-width="2.5" points="90.00,66.98 159.68,70.33 252.58,60.00 438.39,62.82 810.00,63.38"/>
<circle cx="90.00" cy="66.98" r="3.5" fill="#B279A2"/>
<circle cx="159.68" cy="70.33" r="3.5" fill="#B279A2"/>
<circle cx="252.58" cy="60.00" r="3.5" fill="#B279A2"/>
<circle cx="438.39" cy="62.82" r="3.5" fill="#B279A2"/>
<circle cx="810.00" cy="63.38" r="3.5" fill="#B279A2"/>
</svg>
