<svg xmlns="http://www.w3.org/2000/svg" width="860" height="500" viewBox="0 0 860 500">
<rect width="100%" height="100%" fill="white"/>
<text x="430.0" y="32" text-anchor="middle" font-family="Arial" font-size="20">WREC-H2 Saved Stall vs Bandwidth</text>
<line x1="90" y1="60" x2="90" y2="430" stroke="#333"/>
<line x1="90" y1="430" x2="810" y2="430" stroke="#333"/>
<text x="22" y="245.0" transform="rotate(-90 22 245.0)" text-anchor="middle" font-family="Arial" font-size="13">avg saved ms / input token</text>
<text x="450.0" y="476" text-anchor="middle" font-family="Arial" font-size="13">bandwidth GB/s</text>
<line x1="85" y1="430.00" x2="810" y2="430.00" stroke="#eee"/>
<text x="80" y="434.00" text-anchor="end" font-family="Arial" font-size="11">0.00</text>
<line x1="85" y1="337.50" x2="810" y2="337.50" stroke="#eee"/>
<text x="80" y="341.50" text-anchor="end" font-family="Arial" font-size="11">299.74</text>
<line x1="85" y1="245.00" x2="810" y2="245.00" stroke="#eee"/>
<text x="80" y="249.00" text-anchor="end" font-family="Arial" font-size="11">599.48</text>
<line x1="85" y1="152.50" x2="810" y2="152.50" stroke="#eee"/>
<text x="80" y="156.50" text-anchor="end" font-family="Arial" font-size="11">899.22</text>
<line x1="85" y1="60.00" x2="810" y2="60.00" stroke="#eee"/>
<text x="80" y="64.00" text-anchor="end" font-family="Arial" font-size="11">1198.96</text>
<line x1="90.00" y1="430" x2="90.00" y2="436" stroke="#333"/>
<text x="90.00" y="452" text-anchor="middle" font-family="Arial" font-size="11">8</text>
<line x1="262.60" y1="430" x2="262.60" y2="436" stroke="#333"/>
<text x="262.60" y="452" text-anchor="middle" font-family="Arial" font-size="11">16</text>
<line x1="607.80" y1="430" x2="607.80" y2="436" stroke="#333"/>
<text x="607.80" y="452" text-anchor="middle" font-family="Arial" font-size="11">32</text>
<line x1="810.00" y1="430" x2="810.00" y2="436" stroke="#333"/>
<text x="810.00" y="452" text-anchor="middle" font-family="Arial" font-size="11">41.3722</text>
<polyline fill="none" stroke="#B279A2" stroke-width="2.5" points="90.00,60.00 262.60,244.36 607.80,337.03 810.00,358.08"/>
<circle cx="90.00" cy="60.00" r="3.5" fill="#B279A2"/>
<circle cx="262.60" cy="244.36" r="3.5" fill="#B279A2"/>
<circle cx="607.80" cy="337.03" r="3.5" fill="#B279A2"/>
<circle cx="810.00" cy="358.08" r="3.5" fill="#B279A2"/>
</svg>
